<svg xmlns="http://www.w3.org/2000/svg" viewBox="0 0 134.86 28"><defs><style>.a{fill:#fefefe;}.b,.c{fill:#65e496;}.c,.d{fill-rule:evenodd;}.d{fill:#44444f;}</style></defs><path class="a" d="M40.5,23V20.61l2.12-.41V5.91L40.5,5.5V3.09h8.85a9.52,9.52,0,0,1,5.48,1.37,4.66,4.66,0,0,1,2,4.09A4.3,4.3,0,0,1,56.07,11a4.42,4.42,0,0,1-2.13,1.63,4.52,4.52,0,0,1,2,.92,4,4,0,0,1,1.2,1.59,5.25,5.25,0,0,1,.4,2,5.16,5.16,0,0,1-1.89,4.33A8.54,8.54,0,0,1,50.29,23Zm6.12-11.57h2.87A4.12,4.12,0,0,0,52,10.78a2.3,2.3,0,0,0,.86-1.92,2.36,2.36,0,0,0-.87-2A4.3,4.3,0,0,0,49.4,6.2H46.62Zm0,8.51h3.67a3.68,3.68,0,0,0,2.42-.69,2.46,2.46,0,0,0,.84-2.05,3.74,3.74,0,0,0-.32-1.65,2.11,2.11,0,0,0-1-1,3.47,3.47,0,0,0-1.68-.34h-4Z" transform="translate(0 0)"/><path class="a" d="M68.72,23.29a9.91,9.91,0,0,1-4.16-.82,6.36,6.36,0,0,1-2.8-2.38,6.93,6.93,0,0,1-1-3.79V5.91L58.65,5.5V3.09h8.24V5.5l-2.13.41V16.3a4.5,4.5,0,0,0,.48,2.19,3,3,0,0,0,1.36,1.3,4.82,4.82,0,0,0,2.12.43,5,5,0,0,0,2.16-.43,3,3,0,0,0,1.37-1.3,4.5,4.5,0,0,0,.48-2.19V5.91L70.61,5.5V3.09h8.24V5.5l-2.13.41V16.3a6.85,6.85,0,0,1-1,3.79,6.38,6.38,0,0,1-2.81,2.38A10,10,0,0,1,68.72,23.29Z" transform="translate(0 0)"/><path class="a" d="M80.14,23V20.61l2.12-.41V5.91L80.14,5.5V3.09h8.13V5.5l-2,.41V20.2l2,.41V23Zm5.28-4.88-2.07-2.37,9.75-10h0l-2-.16V3.09h8.19V5.5l-1.88.37ZM91.6,23V20.61l1.86-.17h0l-5.06-7L91,10.8l7,9.44,2,.34V23Z" transform="translate(0 0)"/><path class="b" d="M101.26,23V20.61l2.12-.41V5.91l-2.12-.41V3.09h15.45V8.47h-3.06l-.18-2.3h-6.1v5h6.74v3.08h-6.74v5.69h6.43l.18-2.38h3V23Z" transform="translate(0 0)"/><path class="b" d="M119.14,23V20.61l2.12-.41V5.91l-2.12-.41V3.09h15.45V8.47h-3.06l-.18-2.3h-6.09v5H132v3.08h-6.74v5.69h6.42l.18-2.38h3V23Z" transform="translate(0 0)"/><path class="c" d="M28,28,0,0H28Z" transform="translate(0 0)"/><path class="d" d="M28,0,0,28V0Z" transform="translate(0 0)"/></svg>